<?xml version="1.0" standalone="no"?>
<!DOCTYPE svg PUBLIC "-//W3C//DTD SVG 20010904//EN"
 "http://www.w3.org/TR/2001/REC-SVG-20010904/DTD/svg10.dtd">
<svg version="1.0" xmlns="http://www.w3.org/2000/svg"
 width="408.000000pt" height="500.000000pt" viewBox="0 0 408.000000 500.000000"
 preserveAspectRatio="xMidYMid meet">

<g transform="translate(0.000000,500.000000) scale(0.100000,-0.100000)"
fill="#964B00" stroke="none">
<path d="M1812 4207 l-232 -232 185 -185 c102 -102 185 -182 185 -179 0 4 -13
36 -30 72 -16 37 -30 71 -30 75 0 5 15 29 34 53 l34 44 -59 60 -59 60 105 105
105 105 100 -100 c55 -55 100 -104 100 -110 0 -6 -31 -42 -70 -80 -42 -41 -70
-78 -70 -90 0 -12 24 -44 55 -75 l54 -54 140 140 c78 76 143 146 146 153 4 10
-72 93 -222 243 -125 125 -230 228 -233 228 -3 0 -110 -105 -238 -233z"/>
<path d="M2003 4088 c-13 -6 -23 -15 -23 -20 0 -10 1 -10 39 3 37 13 86 -2
101 -32 15 -28 12 -82 -7 -109 l-17 -25 22 19 c46 40 32 130 -27 160 -34 18
-57 19 -88 4z"/>
<path d="M1942 4048 c-18 -18 -15 -36 7 -48 13 -6 24 -30 32 -65 l12 -55 -47
-59 -47 -60 31 -68 c17 -37 28 -73 26 -79 -3 -7 -26 -40 -52 -74 l-48 -61 23
-70 c12 -39 21 -72 19 -73 -1 -2 -14 -9 -27 -16 -32 -16 -41 -1 -41 72 0 69 8
63 -179 144 -95 42 -137 65 -144 81 -12 27 -48 31 -68 7 -21 -25 1 -49 47 -50
34 -1 272 -97 311 -126 6 -5 14 -40 18 -78 l7 -69 -78 -75 -78 -74 -46 25
c-25 15 -51 31 -57 37 -7 6 -16 51 -19 100 l-7 89 -72 32 c-65 30 -93 54 -79
68 3 3 45 -11 93 -30 l88 -35 7 -61 c3 -33 6 -77 6 -99 0 -36 3 -41 43 -59 34
-16 36 -19 12 -14 -37 8 -63 30 -68 59 -4 18 -4 17 -6 -5 -1 -29 5 -35 66 -69
42 -23 43 -23 64 -4 12 10 30 33 42 49 20 30 20 30 -16 -4 -20 -19 -39 -32
-42 -29 -3 3 19 27 49 53 l55 46 -6 52 c-5 40 -13 58 -40 85 -41 40 -76 37
-71 -6 3 -24 7 -27 40 -27 45 -1 44 0 52 -51 7 -39 5 -42 -38 -82 -82 -76
-113 -56 -122 80 l-7 97 -91 36 c-50 20 -97 41 -103 47 -7 6 -13 30 -13 54 0
42 -2 46 -51 75 -28 18 -55 42 -60 55 -9 27 -40 32 -58 10 -17 -21 -2 -46 28
-46 14 0 47 -13 72 -29 50 -31 59 -54 59 -149 l0 -43 73 -34 c80 -39 85 -49
86 -162 l1 -52 71 -43 c133 -78 51 -50 -142 49 -116 59 -193 105 -196 116 -7
21 -51 23 -59 2 -9 -22 16 -47 40 -41 13 3 84 -28 205 -90 102 -53 192 -102
199 -109 10 -9 11 -18 3 -32 -10 -19 -16 -17 -137 45 -81 41 -128 71 -131 83
-3 10 -10 19 -17 19 -6 0 -4 5 4 10 21 13 6 12 -24 -1 -51 -23 -39 -69 18 -69
18 -1 81 -27 151 -63 l120 -62 0 -40 0 -40 -60 -3 c-90 -5 -95 -1 -144 88
l-44 80 -128 0 c-102 0 -129 3 -139 16 -17 19 -60 14 -74 -8 -24 -38 43 -80
70 -44 10 14 30 16 135 14 l124 -3 37 -65 c21 -36 38 -69 38 -73 0 -4 -71 -7
-159 -6 -147 2 -161 0 -194 -20 -19 -12 -42 -18 -51 -15 -40 15 -64 -55 -26
-76 27 -14 60 4 60 33 0 12 12 30 25 40 22 16 49 17 277 15 248 -3 252 -3 224
-21 -25 -17 -29 -17 -45 -3 -14 13 -43 16 -146 16 l-129 0 44 -45 c35 -36 40
-45 27 -51 -9 -3 -30 2 -47 12 -34 21 -65 11 -65 -21 0 -27 31 -43 55 -27 12
7 54 12 103 12 l83 0 73 50 c40 28 76 50 81 50 7 0 25 -90 18 -94 -2 -1 -29
-14 -61 -29 -32 -15 -59 -33 -61 -40 -3 -6 -10 -45 -18 -86 l-13 -75 -73 -24
c-78 -26 -73 -19 -89 -122 -8 -52 -11 -56 -53 -79 -25 -14 -58 -25 -75 -26
-23 0 -31 -5 -33 -21 -2 -11 4 -26 12 -33 13 -11 20 -8 43 17 15 16 47 39 70
51 42 21 49 32 55 91 2 20 12 28 48 38 25 8 70 21 100 30 l55 17 16 93 c9 51
18 95 21 97 2 3 18 7 34 9 25 4 35 -2 67 -39 36 -42 38 -46 30 -87 -9 -42 -10
-43 -48 -43 -36 0 -40 -3 -40 -25 0 -66 99 2 111 77 6 37 3 44 -32 82 -51 57
-67 65 -109 51 -32 -11 -34 -14 -45 -83 -20 -123 -17 -117 -105 -144 -94 -27
-97 -28 -93 -7 2 11 31 26 78 43 45 15 76 32 77 41 1 8 7 47 13 86 l11 71 60
28 c58 28 59 28 74 9 8 -10 12 -25 10 -31 -2 -7 -1 -12 4 -10 4 1 29 -21 54
-49 l47 -52 -13 -67 -12 -68 -130 -45 c-79 -27 -150 -45 -180 -46 -49 -1 -50
-2 -50 -31 0 -39 30 -46 60 -13 15 17 69 40 166 72 79 27 147 53 151 59 3 5 9
34 13 63 7 57 14 68 39 58 13 -5 16 -23 16 -91 l0 -84 -31 -11 c-23 -8 -29
-16 -27 -32 4 -27 48 -36 48 -9 0 10 7 27 15 37 10 13 15 44 15 93 0 57 3 73
15 73 28 0 35 -39 35 -210 0 -136 -3 -175 -15 -194 -20 -30 -10 -56 21 -56 31
0 41 24 24 55 -9 17 -13 78 -14 202 l-1 178 25 0 25 0 3 -239 c1 -153 -1 -243
-8 -250 -25 -25 0 -64 30 -46 14 9 61 -10 93 -38 26 -23 23 -89 -5 -120 -23
-25 -23 -25 -1 -13 26 13 46 70 37 105 -7 30 -58 76 -84 76 -34 0 -41 48 -43
286 l-2 229 28 3 27 3 0 -213 c0 -149 -4 -218 -12 -226 -8 -8 -8 -15 2 -27 29
-35 63 -3 41 38 -8 15 -11 86 -9 227 3 204 3 205 26 208 22 3 22 3 22 -132 0
-79 -4 -137 -10 -141 -16 -10 -12 -52 6 -59 33 -12 59 35 34 60 -7 7 -10 64
-8 150 3 123 5 139 21 142 14 3 17 -4 17 -45 0 -74 22 -127 54 -131 39 -5 36
35 -4 49 -29 11 -30 13 -30 73 0 60 11 86 36 86 6 0 17 -31 25 -72 l14 -71
159 -53 c106 -36 163 -60 173 -74 27 -38 82 -14 68 31 -6 18 -12 20 -44 15
-28 -4 -72 6 -184 43 -82 27 -150 51 -152 53 -3 2 -11 35 -19 74 l-15 69 38
40 c20 22 50 57 65 78 15 20 35 37 44 37 9 0 40 -13 67 -28 l50 -27 13 -80 c7
-44 18 -85 25 -91 7 -7 42 -21 79 -33 59 -20 86 -40 72 -54 -6 -5 -116 23
-166 42 -23 9 -27 18 -39 96 -7 47 -17 92 -23 100 -6 7 -27 17 -46 20 -32 6
-39 2 -84 -44 l-49 -50 9 -53 c7 -41 14 -55 32 -63 12 -5 25 -18 28 -27 7 -22
37 -23 55 -2 21 26 -2 50 -44 46 -69 -5 -78 68 -18 137 36 40 42 43 74 37 l35
-7 12 -87 c7 -48 16 -94 20 -102 5 -9 32 -22 62 -29 151 -39 147 -36 154 -92
6 -48 9 -51 58 -76 28 -14 60 -37 72 -51 14 -17 26 -23 38 -19 40 15 23 74
-18 63 -30 -8 -123 41 -129 67 -3 12 -9 48 -13 80 -5 47 -11 60 -28 67 -19 8
-19 9 6 9 49 2 63 60 27 118 l-21 34 -24 -32 c-28 -38 -30 -57 -9 -85 14 -18
14 -18 15 9 0 29 14 36 24 12 8 -22 -3 -42 -27 -49 -30 -8 -39 -7 -34 2 3 4
-8 7 -24 8 -54 2 -76 26 -83 94 -11 96 -18 106 -91 139 -53 24 -65 34 -61 48
3 10 8 30 11 45 l7 26 79 -54 80 -54 89 0 c49 0 92 -4 95 -10 10 -16 44 -11
54 8 21 39 -24 67 -61 38 -12 -9 -45 -12 -100 -11 -82 2 -83 2 -157 53 l-75
52 225 2 c123 0 238 0 254 -1 41 -3 73 -26 81 -56 13 -50 69 -55 81 -7 7 30
-21 56 -51 48 -11 -3 -33 5 -49 16 -28 20 -41 21 -188 19 -104 -1 -159 1 -159
8 0 6 16 40 36 76 l36 65 121 0 c97 0 124 -3 138 -16 21 -19 64 -12 73 12 16
41 -45 74 -74 39 -10 -12 -39 -15 -140 -15 l-128 0 -48 -82 -49 -83 -80 0 -80
0 -3 50 c-3 50 -3 50 54 93 71 55 80 58 105 36 15 -14 24 -16 36 -8 21 13 25
25 15 42 -16 24 -89 3 -154 -46 -59 -44 -85 -47 -76 -8 5 24 299 256 324 256
41 0 55 50 18 64 -23 9 -44 -4 -50 -31 -4 -16 -57 -65 -151 -141 -118 -94
-148 -114 -161 -105 -10 5 -17 16 -17 23 0 20 376 319 405 322 28 3 41 45 19
59 -18 11 -47 -7 -51 -30 -2 -16 -126 -119 -376 -314 -9 -7 -18 -4 -32 8 -11
10 -19 22 -18 26 2 3 80 68 173 142 104 84 179 137 193 137 27 0 39 24 22 45
-19 23 -37 18 -52 -12 -13 -27 -333 -292 -354 -293 -5 0 -18 6 -29 13 -17 13
-9 21 96 105 71 58 120 90 130 87 8 -3 24 4 34 15 14 16 15 22 5 35 -16 19
-60 20 -60 1 0 -19 -48 -76 -63 -76 -7 1 0 11 16 23 15 13 27 27 27 32 0 5
-13 -4 -30 -20 -16 -15 -27 -31 -25 -35 8 -13 -147 -130 -171 -130 -39 0 -36
17 12 56 25 21 50 47 55 59 5 11 15 28 21 37 10 14 10 21 -3 33 -9 9 -23 13
-33 9 -14 -5 -16 -14 -11 -49 7 -41 6 -43 -43 -78 -48 -36 -102 -49 -102 -26
0 6 18 34 40 61 22 28 40 55 40 60 0 6 -28 71 -62 146 -34 76 -62 152 -62 171
-1 41 -26 62 -50 42 -23 -19 -20 -50 7 -62 17 -7 41 -50 86 -150 35 -76 61
-144 58 -151 -2 -7 -23 -35 -45 -63 l-40 -50 -98 0 -98 0 -20 62 -19 61 51 65
c29 36 52 68 52 72 0 4 -14 38 -30 76 -29 64 -31 89 -11 89 11 0 81 -135 81
-155 0 -8 -25 -47 -55 -87 -30 -39 -55 -74 -55 -77 0 -3 9 -21 20 -38 19 -32
22 -33 89 -33 68 0 70 1 99 38 27 35 32 64 23 135 -1 4 -12 7 -25 7 -41 0 -45
-53 -5 -65 24 -8 24 -34 -2 -64 -26 -31 -112 -46 -145 -26 -39 25 -35 48 22
121 29 38 54 77 54 86 0 9 -19 52 -42 96 l-41 81 19 27 c10 15 23 33 29 40 6
9 5 33 -6 73 -10 38 -12 66 -6 76 17 31 -25 59 -51 33z m-372 -1173 c0 -12
-95 -65 -114 -64 -15 1 -13 3 9 10 17 5 44 20 60 33 29 24 45 32 45 21z"/>
<path d="M2026 4025 c-17 -25 -20 -52 -10 -79 9 -22 21 -20 20 4 -1 26 18 26
22 0 3 -15 -3 -23 -17 -27 -26 -7 -27 -23 -2 -23 29 0 63 49 56 78 -7 29 -34
72 -45 72 -4 0 -15 -11 -24 -25z"/>
<path d="M1945 3970 c4 -14 12 -29 17 -35 7 -7 8 -2 3 15 -4 14 -12 30 -17 35
-7 7 -8 2 -3 -15z"/>
<path d="M1976 3811 c-4 -6 14 -51 39 -101 47 -93 47 -98 11 -138 l-20 -23 47
-47 c35 -34 50 -43 58 -35 8 8 4 17 -15 34 -14 12 -26 30 -26 40 0 24 26 42
53 37 23 -5 23 -3 -17 85 -24 53 -49 93 -61 99 -12 5 -25 19 -30 31 -11 24
-30 33 -39 18z"/>
<path d="M1331 3726 l-32 -33 45 -27 c43 -25 46 -30 46 -69 0 -23 4 -47 8 -53
4 -6 41 -23 82 -39 97 -36 120 -51 120 -78 0 -20 2 -20 32 10 32 32 32 32 12
54 -33 36 -115 72 -162 70 -36 -1 -44 3 -53 23 -13 27 3 66 26 66 8 0 15 4 15
8 0 8 -92 102 -101 102 -3 0 -20 -15 -38 -34z"/>
<path d="M1941 3753 c-1 -7 10 -38 24 -70 17 -37 24 -67 20 -83 l-6 -25 17 24
c16 23 16 26 -19 95 -20 39 -36 66 -36 59z"/>
<path d="M2620 3655 c-58 -58 -99 -105 -93 -105 7 0 20 -11 29 -25 15 -23 15
-27 0 -50 -10 -16 -26 -25 -42 -25 -16 0 -60 -28 -124 -77 -93 -73 -109 -92
-84 -100 17 -6 338 257 347 283 17 48 87 39 87 -12 0 -26 -6 -31 -43 -38 -14
-2 -53 -26 -85 -53 -33 -26 -105 -84 -161 -128 -96 -77 -113 -96 -91 -110 8
-5 225 163 335 259 17 14 34 26 38 26 4 0 13 13 18 29 6 16 17 32 26 35 17 7
63 -18 63 -35 0 -25 -22 -49 -45 -49 -14 0 -25 -4 -25 -8 0 -4 37 -47 82 -96
l81 -88 -77 -77 c-42 -42 -73 -80 -70 -84 4 -4 42 -7 84 -7 59 0 81 4 91 16 9
11 25 15 51 12 36 -3 42 1 110 69 l72 73 -135 137 c-75 76 -178 182 -229 236
-51 53 -96 97 -99 97 -4 0 -53 -47 -111 -105z"/>
<path d="M1082 3477 l-182 -182 73 -73 c64 -64 77 -72 110 -72 24 0 40 -5 43
-15 5 -12 27 -15 107 -15 l102 0 -89 89 -88 89 102 99 101 99 -6 60 c-7 56 -9
61 -46 82 -21 12 -39 22 -41 22 -2 0 -85 -82 -186 -183z"/>
<path d="M2160 3649 c0 -3 16 -40 35 -82 19 -42 35 -83 35 -92 0 -10 -13 -34
-30 -55 -25 -32 -28 -39 -15 -50 11 -9 22 -5 55 21 36 29 40 36 34 66 -4 21
-2 39 7 49 11 13 3 25 -54 82 -37 37 -67 64 -67 61z"/>
<path d="M1827 3542 l-46 -47 29 -17 c27 -16 30 -22 30 -70 0 -62 13 -89 31
-71 10 10 9 24 -4 66 -23 72 -22 83 13 126 22 29 26 41 18 49 -17 17 -19 16
-71 -36z"/>
<path d="M1911 3504 c-12 -15 -21 -32 -21 -38 0 -6 6 -2 12 9 6 11 18 28 26
38 8 9 12 17 9 17 -3 0 -15 -12 -26 -26z"/>
<path d="M2155 3500 c5 -21 2 -39 -9 -55 -23 -35 -2 -31 23 4 18 25 19 33 10
55 -17 36 -32 33 -24 -4z"/>
<path d="M1961 3486 c-16 -19 -10 -51 8 -51 8 0 19 8 25 17 8 14 7 21 -5 33
-14 14 -17 14 -28 1z"/>
<path d="M1403 3482 c4 -5 36 -23 72 -38 54 -24 67 -34 74 -59 l9 -30 1 37 c1
36 1 36 -71 65 -40 15 -77 30 -82 32 -5 2 -6 -1 -3 -7z"/>
<path d="M1735 3450 c-3 -5 5 -15 19 -22 19 -8 26 -19 26 -38 0 -15 3 -41 6
-58 5 -22 1 -35 -15 -51 -27 -27 -14 -27 15 0 19 18 21 28 17 82 -4 45 -10 67
-25 80 -23 19 -34 21 -43 7z"/>
<path d="M1905 3425 c3 -16 11 -34 16 -39 15 -16 11 9 -7 40 l-16 29 7 -30z"/>
<path d="M1315 3390 c-31 -12 -48 -37 -40 -57 6 -16 8 -14 21 9 26 49 94 54
133 11 19 -22 22 -34 18 -71 -3 -28 -1 -39 4 -31 5 8 9 31 9 52 0 72 -74 117
-145 87z"/>
<path d="M1695 3393 c-11 -3 -35 -19 -52 -36 -43 -40 -46 -91 -8 -109 23 -10
29 -8 66 28 35 34 40 44 37 78 -3 41 -9 47 -43 39z"/>
<path d="M2660 3372 c-16 -17 -30 -36 -30 -44 0 -7 17 4 37 24 20 21 34 40 30
44 -3 3 -20 -7 -37 -24z"/>
<path d="M2806 3345 c18 -28 14 -85 -8 -114 -7 -9 -3 -6 10 7 12 13 22 36 22
52 0 36 -16 80 -30 80 -6 0 -3 -11 6 -25z"/>
<path d="M1346 3336 c-18 -29 -21 -46 -6 -46 17 0 25 -3 38 -17 13 -13 42 -18
42 -8 0 15 -29 72 -42 83 -13 10 -18 8 -32 -12z"/>
<path d="M2705 3320 c-19 -37 -19 -54 0 -70 13 -10 15 -9 15 9 0 24 18 28 26
6 7 -18 -13 -45 -33 -45 -8 0 -28 14 -43 30 -17 18 -31 26 -35 20 -9 -14 49
-70 73 -70 30 0 72 38 72 66 0 39 -28 83 -52 84 -4 0 -14 -13 -23 -30z"/>
<path d="M1260 3271 c0 -18 47 -64 57 -58 7 4 0 18 -17 37 -29 31 -40 37 -40
21z"/>
<path d="M1505 3221 c-3 -5 -1 -12 5 -16 5 -3 10 1 10 9 0 18 -6 21 -15 7z"/>
<path d="M2511 3174 c-46 -36 -69 -60 -63 -66 6 -6 27 3 58 25 27 19 64 38 82
42 37 8 39 15 14 38 -18 16 -23 14 -91 -39z"/>
<path d="M1455 3169 c-8 -13 -16 -7 78 -58 71 -38 97 -44 97 -22 0 8 -150 91
-163 91 -3 0 -9 -5 -12 -11z"/>
<path d="M2662 3119 c-15 -23 -49 -25 -73 -3 -16 15 -21 14 -59 -17 l-41 -33
52 -52 c29 -29 56 -51 59 -49 11 7 90 142 90 154 0 19 -16 20 -28 0z"/>
<path d="M1410 3122 c0 -11 114 -122 126 -122 19 0 47 37 33 45 -39 25 -159
82 -159 77z"/>
<path d="M1130 3073 c0 -4 26 -33 57 -65 l57 -58 93 0 c51 0 93 3 93 6 0 4
-15 33 -32 65 l-33 59 -117 0 c-65 0 -118 -3 -118 -7z"/>
<path d="M2687 3018 l-35 -63 95 -3 c53 -1 98 0 101 3 6 6 -108 125 -119 125
-4 0 -23 -28 -42 -62z"/>
<path d="M2846 3068 c14 -25 48 -58 59 -58 18 0 58 47 50 59 -9 16 -118 15
-109 -1z"/>
<path d="M1047 2762 l-147 -147 143 -143 c155 -155 169 -162 240 -126 40 21
47 31 47 69 0 24 -16 46 -86 116 l-85 86 65 63 c70 67 77 80 48 80 -39 0 -57
55 -27 80 14 12 13 16 -11 42 -15 15 -30 28 -33 28 -4 0 -73 -66 -154 -148z"/>
<path d="M2540 2895 c-15 -18 2 -36 59 -61 48 -22 50 -9 6 36 -44 45 -47 46
-65 25z"/>
<path d="M2692 2864 c46 -46 53 -48 89 -23 22 16 66 3 74 -21 9 -27 -12 -60
-38 -60 -18 0 -10 -12 46 -68 37 -37 67 -72 67 -77 0 -5 -36 -46 -80 -90 l-81
-81 7 -43 c6 -36 12 -45 45 -61 21 -11 47 -20 58 -20 18 0 311 280 311 297 0
5 -64 72 -143 151 l-142 142 -130 0 -130 0 47 -46z"/>
<path d="M1544 2815 c-36 -26 -59 -35 -89 -35 l-39 0 44 -45 c24 -25 47 -45
51 -45 4 0 9 12 11 28 2 21 13 32 55 52 29 14 55 29 59 33 7 7 -23 47 -36 47
-3 0 -29 -16 -56 -35z"/>
<path d="M2474 2829 c-20 -23 -22 -21 40 -51 39 -18 52 -31 61 -58 l11 -34 47
47 48 47 -45 0 c-34 0 -55 8 -94 34 -49 34 -50 35 -68 15z"/>
<path d="M2379 2718 c-23 -29 -52 -60 -63 -69 -18 -15 -19 -21 -8 -84 12 -73
15 -79 50 -90 16 -5 22 -2 22 9 0 9 -6 16 -14 16 -22 0 -34 22 -41 80 l-7 55
54 59 54 59 47 -18 c39 -15 49 -24 54 -47 3 -16 9 -31 13 -33 4 -3 3 12 -2 33
-7 29 -18 41 -46 54 -69 32 -67 32 -113 -24z"/>
<path d="M1600 2735 c-14 -8 -20 -14 -14 -15 5 0 19 7 30 15 24 18 16 19 -16
0z"/>
<path d="M1330 2713 c-8 -3 -27 -17 -42 -31 -38 -35 -38 -88 -2 -131 29 -35
51 -38 94 -16 41 21 43 56 8 113 l-20 33 -24 -35 c-28 -41 -29 -55 -9 -82 14
-19 14 -19 15 3 0 29 17 38 25 13 8 -27 -1 -40 -29 -40 -57 0 -81 88 -36 135
33 35 83 34 116 -2 22 -23 25 -35 21 -70 -2 -24 -1 -40 4 -37 16 9 9 88 -9
110 -30 38 -72 52 -112 37z"/>
<path d="M1557 2701 c-4 -17 -3 -21 5 -13 5 5 8 16 6 23 -3 8 -7 3 -11 -10z"/>
<path d="M2686 2705 c-42 -22 -55 -44 -56 -92 0 -32 5 -45 20 -53 20 -11 30 3
10 15 -5 3 -10 21 -10 39 0 46 39 86 82 86 71 -1 113 -80 72 -138 -9 -13 -14
-26 -11 -29 10 -9 37 55 37 86 0 39 -44 89 -85 96 -18 4 -42 -1 -59 -10z"/>
<path d="M2395 2659 c-31 -34 -36 -46 -31 -71 3 -17 6 -35 6 -40 0 -17 84 3
108 26 20 18 23 27 17 61 -12 77 -45 85 -100 24z"/>
<path d="M1627 2662 c-20 -21 -30 -47 -40 -97 l-12 -69 -82 -26 c-87 -27 -123
-51 -123 -82 0 -34 -17 -53 -69 -78 -28 -13 -51 -28 -51 -35 0 -6 27 -37 60
-70 l60 -59 124 124 c69 69 123 126 121 129 -9 9 -126 -43 -136 -60 -17 -33
-89 -15 -89 22 0 33 22 50 63 47 25 -1 77 10 129 27 77 26 84 30 65 40 -49 24
-26 81 30 72 36 -6 38 -5 47 38 5 25 0 37 -27 68 -19 20 -36 37 -39 37 -2 0
-16 -13 -31 -28z"/>
<path d="M1764 2592 c-2 -56 8 -54 19 5 4 19 1 35 -6 41 -9 8 -12 -3 -13 -46z"/>
<path d="M2235 2577 c-4 -13 -5 -43 -3 -67 2 -37 7 -45 27 -50 55 -13 48 -74
-8 -68 -32 4 -60 55 -61 111 0 23 -4 36 -10 32 -5 -3 -10 -43 -10 -89 0 -75 2
-85 24 -105 l25 -23 62 59 61 60 -30 11 c-28 9 -31 16 -42 81 -12 72 -25 90
-35 48z"/>
<path d="M1535 2561 c-3 -12 -12 -21 -19 -21 -8 0 -20 -8 -27 -17 -12 -15 -12
-16 4 -10 10 4 23 7 28 7 10 0 32 50 25 57 -2 3 -7 -5 -11 -16z"/>
<path d="M2550 2553 c0 -25 7 -31 51 -43 26 -8 29 -7 19 5 -7 8 -18 15 -26 15
-7 0 -20 10 -28 22 l-16 22 0 -21z"/>
<path d="M1890 2496 c0 -36 -5 -76 -12 -89 -31 -61 -32 -58 6 -96 l36 -36 0
131 c0 105 -3 134 -15 144 -13 11 -15 4 -15 -54z"/>
<path d="M1827 2522 c-10 -10 -17 -24 -17 -30 0 -7 -14 -21 -30 -31 -29 -17
-29 -19 -12 -34 15 -14 23 -15 50 -5 30 12 32 15 32 65 0 29 -2 53 -3 53 -2 0
-11 -8 -20 -18z"/>
<path d="M2471 2486 l-32 -33 43 -16 c88 -32 124 -41 167 -41 53 -1 71 -21 53
-60 -14 -32 -66 -37 -81 -8 -8 16 -120 67 -128 59 -1 -2 52 -57 118 -122 l120
-120 59 64 c33 35 58 67 55 70 -3 3 -27 17 -53 31 -36 20 -48 32 -53 57 -11
57 -40 77 -147 103 -29 7 -61 21 -71 31 -17 18 -18 18 -50 -15z"/>
<path d="M1956 2370 c5 -100 10 -139 21 -150 14 -13 15 0 9 120 -5 97 -11 139
-22 150 -12 13 -14 -2 -8 -120z"/>
<path d="M2112 2468 c-16 -16 -15 -33 3 -48 13 -11 15 -7 15 24 0 40 -1 41
-18 24z"/>
<path d="M2022 2302 c4 -106 8 -136 21 -150 16 -15 17 -7 17 114 0 121 -2 132
-21 150 l-22 19 5 -133z"/>
<path d="M2100 2243 c0 -64 4 -114 10 -118 6 -3 10 -16 10 -28 0 -14 24 -46
65 -87 36 -35 65 -69 65 -75 0 -6 -45 -55 -100 -110 l-100 -100 -106 107 -107
106 77 75 c48 47 76 82 76 96 0 23 -10 27 -27 10 -15 -15 -54 -7 -67 13 -7 12
-6 24 4 43 12 22 12 28 -3 43 -16 16 -26 8 -167 -133 l-150 -150 234 -234 233
-233 232 230 c127 126 231 233 231 238 0 5 -72 81 -160 169 -99 99 -160 153
-160 142 0 -25 -45 -44 -65 -27 -18 15 -20 53 -3 80 10 16 10 23 -5 37 -16 16
-17 11 -17 -94z"/>
<path d="M1967 1992 c-25 -28 -30 -66 -13 -106 26 -63 103 -71 136 -13 14 25
13 30 -9 72 -13 25 -27 45 -30 45 -12 0 -41 -58 -41 -83 0 -13 8 -31 17 -38
12 -10 15 -10 9 -1 -9 16 2 54 15 47 15 -10 10 -52 -6 -59 -21 -8 -61 9 -69
29 -11 30 -6 78 10 96 8 9 11 20 6 23 -5 3 -16 -2 -25 -12z"/>
<path d="M2613 1163 c-21 -21 -31 -23 -146 -23 -118 0 -147 -6 -147 -32 0 -5
27 -6 60 -2 42 5 60 3 60 -5 0 -6 -14 -79 -31 -162 -17 -83 -28 -153 -25 -156
14 -14 52 16 54 42 1 15 13 83 27 151 14 68 25 126 25 129 0 3 24 5 54 5 61 0
100 23 94 55 -3 19 -4 19 -25 -2z"/>
<path d="M857 1174 c-3 -4 1 -20 9 -37 13 -25 14 -40 6 -82 -12 -56 -25 -76
-119 -173 -92 -96 -113 -79 -89 76 8 51 8 52 -18 52 -23 0 -26 -4 -26 -35 0
-18 -5 -57 -11 -85 -9 -43 -8 -55 5 -75 37 -56 131 -9 210 105 18 25 18 25 10
-20 -5 -25 -8 -61 -9 -80 0 -31 3 -35 25 -35 23 0 24 3 21 47 -1 25 5 85 15
133 l17 88 57 -119 c77 -161 109 -185 143 -111 19 40 57 227 57 278 0 43 -11
54 -45 45 -22 -6 -23 -8 -9 -34 16 -32 18 -74 4 -157 -11 -65 -28 -115 -40
-115 -13 0 -47 63 -101 192 -29 68 -57 129 -62 136 -10 13 -39 16 -50 6z"/>
<path d="M3552 1160 c-10 -11 -29 -54 -42 -95 l-24 -75 -62 0 -62 0 14 63 c8
34 17 69 19 77 4 12 -8 15 -65 15 -39 0 -70 -2 -70 -6 0 -14 27 -29 53 -29 25
0 28 -3 24 -22 -3 -13 -9 -40 -12 -60 -6 -33 -11 -38 -35 -38 -15 0 -34 -8
-43 -18 -23 -25 -21 -35 2 -22 32 17 63 13 57 -7 -3 -10 -10 -47 -16 -83 -6
-36 -13 -73 -16 -83 -5 -15 -1 -18 22 -15 27 3 29 7 41 78 21 129 15 120 84
120 l61 0 -2 -37 c-4 -80 0 -102 22 -123 25 -23 55 -25 81 -6 24 19 21 24 -15
28 -25 2 -33 9 -39 30 -10 37 1 108 16 108 6 0 20 10 31 21 l19 22 -29 -7
c-28 -7 -28 -7 -21 31 3 21 19 64 35 96 26 52 27 57 10 57 -11 0 -28 -9 -38
-20z"/>
<path d="M1348 1141 c-112 -5 -129 -8 -142 -26 -18 -25 -14 -30 12 -16 12 6
30 11 42 11 19 0 21 -4 16 -26 -4 -15 -10 -39 -13 -55 -3 -16 -11 -29 -18 -29
-6 0 -20 -9 -30 -20 -18 -20 -17 -20 10 -20 21 0 26 -4 21 -17 -4 -9 -9 -42
-13 -73 -5 -52 -3 -59 18 -74 13 -9 37 -16 54 -17 28 -1 28 -1 6 -8 -14 -4
-26 -11 -28 -18 -5 -14 30 -23 97 -23 30 0 73 -5 95 -10 25 -6 409 -10 995
-10 809 0 967 -2 1034 -15 59 -11 93 -13 138 -5 70 11 80 17 55 35 -31 23
-118 27 -193 10 -61 -13 -186 -15 -1026 -13 l-956 3 -26 24 c-20 19 -41 26
-93 30 -63 6 -65 7 -30 13 39 7 67 23 67 39 0 4 -15 3 -32 -2 -46 -13 -91 -11
-112 4 -16 11 -17 21 -9 68 l8 54 55 8 c51 9 80 21 80 36 0 3 -28 4 -61 3
l-62 -4 8 49 c4 26 9 51 12 56 2 4 31 7 64 7 60 0 99 12 99 30 0 6 -3 9 -7 8
-5 -1 -65 -4 -135 -7z"/>
<path d="M1591 1135 c-72 -20 -121 -58 -121 -92 l0 -27 33 31 c61 60 150 86
211 63 21 -8 26 -16 26 -45 0 -41 -26 -72 -67 -80 -16 -4 -34 -10 -42 -14 -21
-11 -25 -31 -7 -31 9 0 22 -12 28 -27 24 -54 62 -105 86 -114 28 -11 64 7 82
41 10 19 9 19 -19 2 -28 -16 -31 -15 -49 1 -10 10 -31 39 -46 66 l-26 49 45
26 c50 30 65 51 65 95 0 59 -95 85 -199 56z"/>
<path d="M2000 1143 c-63 -20 -97 -65 -85 -112 4 -14 33 -54 66 -88 67 -70 75
-99 33 -132 -48 -38 -115 -20 -128 35 -7 25 -8 26 -24 11 -12 -13 -14 -23 -6
-44 22 -62 147 -63 199 -1 47 56 27 115 -67 196 -30 26 -38 78 -16 100 17 17
84 15 102 -3 20 -20 26 -19 26 5 0 32 -52 49 -100 33z"/>
<path d="M2782 1141 c-107 -5 -126 -9 -138 -25 -18 -26 -14 -28 24 -14 17 7
34 9 37 6 4 -3 3 -27 -1 -53 -5 -35 -12 -49 -30 -57 -31 -14 -39 -38 -14 -38
23 0 24 -8 10 -79 -12 -62 -7 -76 32 -92 47 -19 178 11 178 41 0 4 -17 4 -37
-1 -56 -13 -100 -11 -116 5 -11 12 -12 25 -4 69 l10 55 58 6 c40 5 62 12 68
24 8 15 3 17 -54 14 l-63 -4 9 44 c4 24 8 49 9 56 0 8 20 12 64 12 49 0 69 5
87 20 16 12 19 19 9 18 -8 -1 -71 -4 -138 -7z"/>
<path d="M3065 1135 c-52 -18 -121 -94 -136 -148 -16 -61 -7 -132 21 -162 39
-42 91 -52 157 -31 58 19 103 54 103 81 0 12 -10 8 -39 -16 -49 -39 -118 -50
-155 -25 -49 32 -54 141 -10 217 44 74 126 97 169 47 17 -19 26 -23 34 -15 20
20 12 38 -24 53 -42 17 -68 17 -120 -1z"/>
<path d="M693 1115 c-27 -12 -43 -26 -43 -37 0 -10 5 -18 10 -18 12 0 87 67
80 72 -3 2 -24 -6 -47 -17z"/>
<path d="M1574 1072 c-8 -5 -64 -270 -64 -305 0 -5 10 -7 23 -5 20 3 25 15 49
133 14 72 27 142 27 158 1 27 -13 34 -35 19z"/>
<path d="M403 670 c-13 -5 -23 -14 -23 -19 0 -18 81 -33 139 -27 52 6 1305 23
1521 21 551 -4 527 -3 556 -30 24 -22 35 -25 108 -25 86 0 119 11 99 31 -25
25 -252 32 -1213 40 -547 4 -1033 10 -1080 13 -47 3 -95 1 -107 -4z"/>
<path d="M3380 657 c0 -18 -5 -23 -22 -23 -20 1 -23 -4 -23 -34 0 -32 3 -35
33 -38 l32 -3 0 60 c0 34 -4 61 -10 61 -5 0 -10 -10 -10 -23z m0 -57 c0 -11
-7 -20 -15 -20 -8 0 -15 9 -15 20 0 11 7 20 15 20 8 0 15 -9 15 -20z"/>
<path d="M2890 610 c0 -27 5 -50 10 -50 6 0 10 9 10 19 0 13 8 21 23 23 16 2
23 11 25 31 3 25 1 27 -32 27 l-36 0 0 -50z m50 25 c0 -8 -7 -15 -15 -15 -8 0
-15 7 -15 15 0 8 7 15 15 15 8 0 15 -7 15 -15z"/>
<path d="M3060 650 c0 -5 -6 -10 -13 -10 -8 0 -20 -12 -27 -27 l-13 -28 -9 28
c-5 15 -14 27 -20 27 -6 0 -7 -7 -4 -16 3 -9 9 -27 12 -40 9 -35 41 -31 49 6
8 37 25 40 25 5 0 -25 24 -44 38 -30 4 4 1 10 -5 12 -17 6 -17 40 -1 45 9 3 8
9 -4 21 -19 19 -28 21 -28 7z"/>
<path d="M3210 610 c0 -47 2 -50 25 -50 14 0 25 5 25 10 0 6 -7 10 -15 10 -11
0 -15 11 -15 40 0 22 -4 40 -10 40 -5 0 -10 -22 -10 -50z"/>
<path d="M3270 643 c-10 -12 -11 -18 -2 -21 7 -2 12 -17 12 -33 0 -17 5 -29
13 -29 11 0 15 41 8 93 -2 12 -15 7 -31 -10z"/>
<path d="M3120 570 c0 -5 4 -10 9 -10 6 0 13 5 16 10 3 6 -1 10 -9 10 -9 0
-16 -4 -16 -10z"/>
<path d="M3420 570 c0 -5 7 -10 15 -10 8 0 15 5 15 10 0 6 -7 10 -15 10 -8 0
-15 -4 -15 -10z"/>
</g>
</svg>
